<svg xmlns="http://www.w3.org/2000/svg"
    xmlns:xlink="http://www.w3.org/1999/xlink" viewBox="0 0 841.89 273">
    <defs>
        <style>.cls-1{fill:transparent;}.cls-2{fill:#fff;}.cls-3{fill:url(#linear-gradient);}.cls-4{fill:url(#linear-gradient-2);}.cls-5{fill:url(#linear-gradient-3);}.cls-6{fill:url(#linear-gradient-4);}</style>
        <linearGradient id="linear-gradient" x1="317.02" y1="172.31" x2="283.09" y2="146.9" gradientUnits="userSpaceOnUse">
            <stop offset="0" stop-color="#fff"/>
            <stop offset="0.32" stop-color="#fdfdfd"/>
            <stop offset="0.46" stop-color="#f6f6f6"/>
            <stop offset="0.56" stop-color="#e9e9e9"/>
            <stop offset="0.65" stop-color="#d8d8d8"/>
            <stop offset="0.72" stop-color="#c1c1c1"/>
            <stop offset="0.79" stop-color="#a4a4a4"/>
            <stop offset="0.85" stop-color="#828282"/>
            <stop offset="0.9" stop-color="#5b5b5b"/>
            <stop offset="0.95" stop-color="#303030"/>
            <stop offset="1"/>
        </linearGradient>
        <linearGradient id="linear-gradient-2" x1="-103.41" y1="621.26" x2="-61.42" y2="621.26" gradientTransform="translate(886.5 200.5) rotate(90)" gradientUnits="userSpaceOnUse">
            <stop offset="0" stop-color="#f18f34"/>
            <stop offset="0.61" stop-color="#e95f32"/>
            <stop offset="1" stop-color="#e3312d"/>
        </linearGradient>
        <linearGradient id="linear-gradient-3" x1="-19.63" y1="307.74" x2="-61.42" y2="307.74" gradientTransform="matrix(0, 1, 1, 0, -42.5, 200.5)" gradientUnits="userSpaceOnUse">
            <stop offset="0" stop-color="#ffef26"/>
            <stop offset="0.02" stop-color="#ffea21"/>
            <stop offset="0.14" stop-color="#fed70f"/>
            <stop offset="0.25" stop-color="#fdcc04"/>
            <stop offset="0.38" stop-color="#fdc800"/>
            <stop offset="1" stop-color="#f18f34"/>
        </linearGradient>
        <linearGradient id="linear-gradient-4" x1="281.7" y1="164.71" x2="345.37" y2="164.71" gradientTransform="translate(11.59 21.03)" xlink:href="#linear-gradient-3"/>
    </defs>
    <g id="Layer_2" data-name="Layer 2">
        <rect class="cls-1" x="-18.38" y="-20.76" width="866.3" height="304.38"/>
    </g>
    <g id="Layer_1" data-name="Layer 1">
        <path class="cls-2" d="M293.37,139.08l19.87-30.63H296.42a11.09,11.09,0,0,0-9.31,5.06l-16.58,25.57Z"/>
        <path class="cls-3" d="M286.86,164.22l-16.33-25.14h22.84l20.32,31.26H298.12A13.45,13.45,0,0,1,286.86,164.22Z"/>
        <path class="cls-4" d="M264.05,139.08l-26.93-42h19a19,19,0,0,1,16,8.81l21.29,33.18Z"/>
        <path class="cls-5" d="M273.38,170.09l20-31H264.05l-26.93,41.79h16.61A23.37,23.37,0,0,0,273.38,170.09Z"/>
        <path class="cls-2" d="M121.84,100.56H93.24V91.42a8.94,8.94,0,0,1,8.94-8.94h72.27v9.14a8.94,8.94,0,0,1-8.94,8.94H145.85v69.89a1,1,0,0,1-1,1h-17a6.05,6.05,0,0,1-6-6Z"/>
        <path class="cls-2" d="M229.73,141.91H190.46c.15,8.15,4.89,15.71,18.82,15.71,7.26,0,15.56-3,20.3-6.81v14.82c-5.92,4.59-15.11,7.56-27.26,7.56-20.46,0-34.54-14.38-34.54-34.24,0-20.45,16.16-33.35,33.35-33.35,16.6,0,29.64,10.08,29.64,25.79A53.14,53.14,0,0,1,229.73,141.91Zm-19-10.67c1.48-6.67-1.63-12.59-9.19-12.59-5.33,0-9.48,3.26-10.67,12.59Z"/>
        <path class="cls-2" d="M357,122.05v49.36h-14a8.94,8.94,0,0,1-8.94-8.94V122.05H321.54V107.38H334V89.89h23v17.49h12.45v14.67Z"/>
        <path class="cls-2" d="M447.36,171.41H434.24a8.93,8.93,0,0,1-8.91-8.36l-.2-3.06c-3.85,8.45-13.78,13.2-22.38,13.2-17,0-23.71-11.86-23.71-27.72V107.38h23v33.94c0,10.37,2.82,14.08,9.49,14.08,7.11,0,12.89-6.82,12.89-14.23V107.38h23Z"/>
        <path class="cls-2" d="M511.58,163.06l-.05-.69c-5.48,7.7-15.12,10.82-22.53,10.82-17.19,0-29.64-13.94-29.64-33.8,0-19.71,12.45-33.79,29.64-33.79,7.41,0,17.05,3.12,22.53,10.82l.59-9h21.2v64H520.49A8.92,8.92,0,0,1,511.58,163.06Zm-14.87-41.15c-8.15,0-14.37,6.37-14.37,17.48s6.22,17.49,14.37,17.49,14.38-6.37,14.38-17.49S504.86,121.91,496.71,121.91Z"/>
        <path class="cls-2" d="M549,162.5v-80h23v88.93H557.93A8.91,8.91,0,0,1,549,162.5Z"/>
        <path class="cls-2" d="M587.41,98.34V82.48h23V98.34Zm0,64.15V107.38h23v64H596.32A8.91,8.91,0,0,1,587.41,162.49Z"/>
        <path class="cls-2" d="M620.75,162.81l29.49-40H622.53V107.38h55.58V116l-29.5,40h30.24v15.42h-58.1Z"/>
        <path class="cls-2" d="M747.61,141.91H708.34c.15,8.15,4.89,15.71,18.82,15.71,7.26,0,15.56-3,20.31-6.81v14.82c-5.93,4.59-15.12,7.56-27.27,7.56-20.46,0-34.54-14.38-34.54-34.24,0-20.45,16.16-33.35,33.35-33.35,16.6,0,29.64,10.08,29.64,25.79A53.14,53.14,0,0,1,747.61,141.91Zm-19-10.67c1.49-6.67-1.63-12.59-9.18-12.59-5.34,0-9.49,3.26-10.67,12.59Z"/>
        <rect class="cls-6" x="293.3" y="180.98" width="63.67" height="9.54"/>
    </g>
</svg>
